<svg width="35" height="32" viewBox="0 0 35 32" fill="none" xmlns="http://www.w3.org/2000/svg">
<path d="M29.1663 30.6439C29.9718 30.6439 30.6247 30.0119 30.6247 29.2323C30.6247 28.4527 29.9718 27.8207 29.1663 27.8207C28.3609 27.8207 27.708 28.4527 27.708 29.2323C27.708 30.0119 28.3609 30.6439 29.1663 30.6439Z" stroke="white" stroke-width="2" stroke-linecap="round" stroke-linejoin="round"/>
<path d="M13.1258 30.6439C13.9312 30.6439 14.5841 30.0119 14.5841 29.2323C14.5841 28.4527 13.9312 27.8207 13.1258 27.8207C12.3204 27.8207 11.6675 28.4527 11.6675 29.2323C11.6675 30.0119 12.3204 30.6439 13.1258 30.6439Z" stroke="white" stroke-width="2" stroke-linecap="round" stroke-linejoin="round"/>
<path d="M1.45801 1H7.29134L11.1997 19.9015C11.333 20.5514 11.6983 21.1352 12.2315 21.5507C12.7647 21.9662 13.4319 22.1869 14.1163 22.1742H28.2913C28.9757 22.1869 29.6429 21.9662 30.1762 21.5507C30.7094 21.1352 31.0746 20.5514 31.208 19.9015L33.5413 8.05807H8.74967" stroke="white" stroke-width="2" stroke-linecap="round" stroke-linejoin="round"/>
</svg>
