<?xml version="1.0" encoding="utf-8"?>
<!-- Generator: Adobe Illustrator 28.3.0, SVG Export Plug-In . SVG Version: 6.00 Build 0)  -->
<svg version="1.1" id="Layer_1" xmlns="http://www.w3.org/2000/svg" xmlns:xlink="http://www.w3.org/1999/xlink" x="0px" y="0px"
	 viewBox="0 0 100 100" style="enable-background:new 0 0 100 100;" xml:space="preserve">
<style type="text/css">
	.st0{fill:#FDB336;}
	.st1{fill:#D38929;}
</style>
<g>
	<g>
		<polygon class="st0" points="93.8,1.8 81,9.6 86.4,10 73.9,19.6 91.1,9.8 86,8.5 		"/>
		<polygon class="st0" points="1.6,66.9 14.8,73.9 12.3,69.2 27,75 9.8,65.2 11.3,70.3 		"/>
		<g>
			<path class="st1" d="M40.4,14.7L25.5,58.4c-0.3,0.9,0.5,1.7,1.3,1.5l19.4-5.2c0.8-0.2,1.6,0.5,1.3,1.4l-7.4,39.4
				c-0.3,1.3,1.4,2,2,0.8l29.3-54.8c0.5-0.8-0.2-1.9-1.1-1.7L47.3,44c-0.9,0.2-1.6-0.9-1.1-1.7L67,4.4c0.5-1,1.4-2.5,0.4-2.1
				L41,14.1C40.7,14.2,40.5,14.4,40.4,14.7z"/>
			<path class="st0" d="M44.8,12.7L30,54.7c-0.3,0.8,0.5,1.7,1.3,1.4l19.4-5c0.8-0.2,1.6,0.5,1.3,1.3L41.2,95.5
				c-0.3,1.2,1.4,1.9,2,0.8L76,38.5c0.5-0.8-0.2-1.8-1.1-1.6l-23.1,4c-0.9,0.2-1.6-0.8-1.1-1.6L71.4,2.8c0.5-0.9-0.4-2-1.4-1.6
				L45.4,12C45.2,12.2,45,12.4,44.8,12.7z"/>
		</g>
	</g>
</g>
</svg>
