<?xml version="1.0" encoding="utf-8"?>
<!-- Generator: Adobe Illustrator 28.3.0, SVG Export Plug-In . SVG Version: 6.00 Build 0)  -->
<svg version="1.1" xmlns="http://www.w3.org/2000/svg" xmlns:xlink="http://www.w3.org/1999/xlink" x="0px" y="0px"
	 viewBox="0 0 1000 1000" style="enable-background:new 0 0 1000 1000;" xml:space="preserve">
<style type="text/css">
	.st0{opacity:5.000000e-02;fill:#FFFFFF;}
</style>
<g id="Background">
</g>
<g id="object">
	<g>
		<g>
			<path class="st0" d="M-105.2,1514.7l-59.8,20.7C-243.2,787.9,328.7,588-444.5,79l58.3-20.2C44.9,342.6,71.8,570.2-31.9,848.3
				C-102.5,1033.3-132.7,1252-105.2,1514.7z"/>
			<path class="st0" d="M13.8,1473.4l-59.4,20.6c-24.7-236.4-31.2-466.6,61.1-661.9c130-278.7,44.4-538-343.6-793.4l57.9-20
				c344.9,227.1,489.2,518,332.9,797.4C-51.3,1021.6-8.1,1263.3,13.8,1473.4z"/>
			<path class="st0" d="M132.1,1432.5L73.1,1453c-19.2-183.9-99.1-437.1,36.6-652.9C292.2,520,89.3,197.4-212.6-1.3l57.5-19.9
				c258.7,170.3,520.3,524.6,311.5,805.4C-1,1010.1,115.6,1274.9,132.1,1432.5z"/>
			<path class="st0" d="M249.7,1391.8l-58.7,20.3c-13.7-131.4-167.1-407.6,12.1-643.8C438.2,486.9,117.9,100.9-97.7-41l57.2-19.8
				C131.9,52.7,510.9,470.4,249.6,752.5C48.7,998.9,238.7,1286.7,249.7,1391.8z"/>
			<path class="st0" d="M378,1347.4l-65.9,22.8c-8.2-78.8-235-378.1-12.4-634.8C587.4,452.6,149.7,3.3,20.3-81.9l64.4-22.3
				c86.2,56.8,582.6,537.8,268.7,821.3C109.1,984,372.6,1294.9,378,1347.4z"/>
			<path class="st0" d="M511.6,1301.2l-67,23.2c-2.7-26.3-302.9-348.7-36.9-625.7c340.2-284.2-214.9-796.9-258-825.3l65.4-22.7
				c0,0,613.8,544.3,247.3,829.2C174.7,967.2,511.6,1301.2,511.6,1301.2z"/>
			<path class="st0" d="M619.3,1263.9l-53.2,18.4c0,0-204.9-206.3-159.8-430.6c12.5-62.1,42-127,96.6-189.7
				c106-95.8,115.5-214.8,76-325.3C497.3,108.1,237.4-157,237.4-157l21-7.3c0,0,239.5,281.6,334,488.9
				c46.5,102.1,43.4,220.5-50.1,319.8C494.1,708.6,468,775.4,457,837.8C418.2,1058.1,619.3,1263.9,619.3,1263.9z"/>
			<path class="st0" d="M722.9,1228.1l-51.3,17.8c0,0-197.5-205.4-164.9-421.5c9.5-62.9,32.3-131.3,73.7-196.9
				c81-103,78.2-220.6,24.3-314.4C498.1,127.3,278.3-171.2,278.3-171.2l19.1-6.6c0,0,200.9,315.3,318.8,479.4
				c61.6,85.7,70.1,202.4,1.6,309c-34.9,67.1-54.3,137.2-62.3,200.6C528.9,1023,722.9,1228.1,722.9,1228.1z"/>
			<path class="st0" d="M823.1,1193.4l-49.7,17.2c0,0-190.6-204.9-170-412.3c6.4-63.8,22.5-135.6,50.8-204.2
				c56-110.2,42.3-226.1-27.4-303.5C498.3,147.8,315.6-184.1,315.6-184.1l17.5-6c0,0,165.1,347.7,303.6,469.8
				c78.1,68.8,96.8,184.3,53.3,298.1c-21.7,70.1-34.6,143.5-39.3,207.9C635.7,988.7,823.1,1193.4,823.1,1193.4z"/>
			<path class="st0" d="M929.6,1156.5l-57.4,19.9c0,0-184.4-204.6-175-403.2c3.1-64.9,12.7-139.9,27.9-211.5
				c31-117.4,7.5-233-79.1-292.6c-148.4-102.2-296-465-296-465l25.2-8.7c0,0,130.2,377,288.4,460.2c95.1,50,123.5,166.2,105,287.2
				c-8.6,73.1-15.1,149.8-16.4,215.2C748.1,952,929.6,1156.5,929.6,1156.5z"/>
			<path class="st0" d="M1059,1111.7l-65.1,22.5c0,0-178.8-204.4-180.1-394c-0.5-65.9,3-144.2,5-218.8
				c6-124.5-27.3-241.9-130.8-281.7c-168.5-64.9-280.8-455.4-280.8-455.4l32.8-11.4c0,0,94.2,403.5,273.2,450.6
				c111.6,29.4,150.2,148.1,156.7,276.3c4.6,76.1,4.2,156,6.5,222.4C882.8,907.4,1059,1111.7,1059,1111.7z"/>
		</g>
	</g>
</g>
<g id="text">
</g>
</svg>
