<svg width="141" height="9" viewBox="0 0 141 9" fill="none" xmlns="http://www.w3.org/2000/svg">
<path fill-rule="evenodd" clip-rule="evenodd" d="M1.3788 4.66447L11.4501 4.29822L20.682 3.93196L29.6742 3.50467C30.993 3.44363 32.3718 3.32155 33.7507 3.32155L39.7455 3.19946H43.0425L49.2171 3.32155L58.4492 3.6878L77.3327 4.48134L86.6246 4.96968L95.8568 5.39697C101.672 5.64114 107.487 5.82426 113.241 6.19051L118.037 6.49572L123.373 6.92301L127.988 7.35031L129.907 7.53343L132.125 7.83864L135.242 8.20489L139.198 8.9374L139.559 8.99844C139.862 9.01303 140.162 8.92519 140.411 8.74853C140.66 8.57194 140.846 8.31648 140.937 8.02177C141.058 7.65552 140.998 7.22822 140.818 6.86197C140.697 6.6178 140.338 6.25155 140.038 6.19051L137.521 5.70217L135.003 5.27489C132.271 4.90168 129.532 4.57608 126.79 4.29822C127.017 4.13846 127.195 3.91534 127.301 3.65554C127.407 3.39573 127.438 3.11024 127.389 2.83321C127.269 2.46696 127.03 2.10071 126.79 1.91758L126.13 1.61237C125.614 1.50993 125.094 1.42847 124.572 1.3682L123.373 1.18508L121.094 1.063L116.598 0.818827L107.307 0.513618L98.0746 0.330492L93.2189 0.208408H78.5917L69.1199 0.0863263C63.3049 0.0252844 57.3701 -0.0357575 51.4952 0.0252844H42.7429C39.6255 0.0252844 36.5082 0.0252844 33.3909 0.147368L27.2163 0.208408L23.6794 0.26945L18.0443 0.513618L14.3275 0.696744C9.89143 1.00195 5.5152 1.30716 1.13901 1.73446C0.839274 1.7955 0.659426 1.91758 0.479583 2.10071C0.179844 2.34488 0 2.71113 0 3.07738C0 3.87092 0.599479 4.60343 1.3788 4.60343" fill="#394366"/>
</svg>
